<svg id="Слой_1" data-name="Слой 1" xmlns="http://www.w3.org/2000/svg" xmlns:xlink="http://www.w3.org/1999/xlink" viewBox="0 0 1921 1080"><defs><style>.cls-1{fill:#ffe2dd;}.cls-2{fill:url(#linear-gradient);}.cls-3{fill:url(#linear-gradient-2);}.cls-4{fill:url(#linear-gradient-3);}.cls-5{fill:url(#linear-gradient-4);}.cls-6{fill:url(#linear-gradient-5);}.cls-7{fill:url(#linear-gradient-6);}.cls-8{fill:url(#linear-gradient-7);}.cls-9{fill:url(#linear-gradient-8);}.cls-10{fill:url(#linear-gradient-9);}.cls-11{fill:url(#linear-gradient-10);}.cls-12{fill:url(#linear-gradient-11);}.cls-13{fill:#fcfcfc;}</style><linearGradient id="linear-gradient" y1="540" x2="1920.27" y2="540" gradientUnits="userSpaceOnUse"><stop offset="0" stop-color="#ffd9d2"/><stop offset="0.35" stop-color="#fbc1ba"/><stop offset="0.74" stop-color="#f7ada7"/><stop offset="1" stop-color="#f6a6a0"/></linearGradient><linearGradient id="linear-gradient-2" x1="1985.27" y1="899.38" x2="1734.93" y2="465.78" gradientUnits="userSpaceOnUse"><stop offset="0.08" stop-color="#f9a345"/><stop offset="0.1" stop-color="#f9a74e"/><stop offset="0.18" stop-color="#f9b264"/><stop offset="0.28" stop-color="#f9ba75"/><stop offset="0.39" stop-color="#f9c080"/><stop offset="0.55" stop-color="#f9c387"/><stop offset="1" stop-color="#f9c489"/></linearGradient><linearGradient id="linear-gradient-3" x1="1748.62" y1="697.92" x2="1993.09" y2="582.16" xlink:href="#linear-gradient-2"/><linearGradient id="linear-gradient-4" x1="46.87" y1="179.9" x2="1254.32" y2="179.9" gradientUnits="userSpaceOnUse"><stop offset="0.29" stop-color="#f9a345"/><stop offset="0.31" stop-color="#f9a74e"/><stop offset="0.37" stop-color="#f9b264"/><stop offset="0.44" stop-color="#f9ba75"/><stop offset="0.53" stop-color="#f9c080"/><stop offset="0.66" stop-color="#f9c387"/><stop offset="1" stop-color="#f9c489"/></linearGradient><linearGradient id="linear-gradient-5" x1="47.47" y1="153.08" x2="1263.36" y2="153.08" gradientUnits="userSpaceOnUse"><stop offset="0" stop-color="#f9c489"/><stop offset="0.34" stop-color="#f9c387"/><stop offset="0.47" stop-color="#f9c080"/><stop offset="0.56" stop-color="#f9ba75"/><stop offset="0.63" stop-color="#f9b264"/><stop offset="0.69" stop-color="#f9a74e"/><stop offset="0.71" stop-color="#f9a345"/></linearGradient><linearGradient id="linear-gradient-6" x1="52.98" y1="413.29" x2="1920.27" y2="413.29" gradientUnits="userSpaceOnUse"><stop offset="0" stop-color="#d3acbf"/><stop offset="0.37" stop-color="#d3aabe"/><stop offset="0.51" stop-color="#d1a3ba"/><stop offset="0.61" stop-color="#ce98b3"/><stop offset="0.68" stop-color="#cb87aa"/><stop offset="0.71" stop-color="#c980a6"/></linearGradient><linearGradient id="linear-gradient-7" y1="540" x2="1920.27" y2="540" gradientUnits="userSpaceOnUse"><stop offset="0" stop-color="#f6a6a0"/><stop offset="0.21" stop-color="#f49f99"/><stop offset="0.53" stop-color="#ef8d85"/><stop offset="0.9" stop-color="#e66e65"/><stop offset="1" stop-color="#e3655b"/></linearGradient><linearGradient id="linear-gradient-8" x1="1647.14" y1="421.55" x2="1647.14" y2="36.45" gradientUnits="userSpaceOnUse"><stop offset="0" stop-color="#7c9ac3"/><stop offset="0.17" stop-color="#7797c3"/><stop offset="0.36" stop-color="#6a8fc3"/><stop offset="0.56" stop-color="#5382c3"/><stop offset="0.77" stop-color="#3370c4"/><stop offset="0.98" stop-color="#0b59c4"/><stop offset="1" stop-color="#0757c4"/></linearGradient><linearGradient id="linear-gradient-9" x1="1365.98" y1="214.04" x2="1920.27" y2="214.04" gradientUnits="userSpaceOnUse"><stop offset="0" stop-color="#7c9ac3"/><stop offset="0.21" stop-color="#7596c3"/><stop offset="0.51" stop-color="#618bc3"/><stop offset="0.87" stop-color="#4178c4"/><stop offset="1" stop-color="#3471c4"/></linearGradient><linearGradient id="linear-gradient-10" x1="0" y1="865.35" x2="554.57" y2="865.35" xlink:href="#linear-gradient-9"/><linearGradient id="linear-gradient-11" x1="69.23" y1="910.47" x2="539.76" y2="910.47" gradientUnits="userSpaceOnUse"><stop offset="0" stop-color="#0757c4"/><stop offset="0.1" stop-color="#1760c4"/><stop offset="0.38" stop-color="#4379c3"/><stop offset="0.64" stop-color="#628bc3"/><stop offset="0.85" stop-color="#7596c3"/><stop offset="1" stop-color="#7c9ac3"/></linearGradient></defs><title>tetris-background</title><rect class="cls-1" width="1920.27" height="1080"/><path class="cls-2" d="M1920.27,1041.11V1080H0V0H49.08C45.44,34.49,73.62,19,76,54.68c6.64,97.66,42.35,157.63,86,243,69.23,135.32,52.55,363.7-41,485.07-60,77.87-4.65,187.77,103.25,208.66,89.32,17.29,167-45.6,246.28-69.74,151.25-46.05,296.45-14.84,441.13,18.61,156,36.06,320.17,77.59,480,61.39C1579.65,982.61,1742.07,1003.72,1920.27,1041.11Z" transform="translate(0 0)"/><path class="cls-3" d="M1920.27,514.15V936.91c-35.33-6-77.48-17.37-117.81-38.31-101.37-52.64-73.72-174.12-27.65-247S1890,376.25,1890,376.25Z" transform="translate(0 0)"/><path class="cls-4" d="M1920.27,443.48V874.25a408,408,0,0,1-52.77-14.74c-106.9-38.38-93.62-152.53-56.35-223.9s82.29-263.87,82.29-263.87Z" transform="translate(0 0)"/><path class="cls-5" d="M48,27.76S30,139.38,136,183.92s198.13-60.74,308.72-48.59S652.07,305.4,813.34,329.69s441-148.79,441-148.79S542.72,35.42,48,27.76Z" transform="translate(0 0)"/><path class="cls-6" d="M49.08,0S28.49,113.05,134.47,157.6,332.6,96.86,443.18,109,650.53,279.07,811.8,303.37s451.56-117.43,451.56-117.43S543.78,7.66,49.08,0Z" transform="translate(0 0)"/><path class="cls-7" d="M1776.15.06,1697.57,0H53c2.45,48.72,25.69,83.18,79.19,96.86C257,128.79,355.5,21.79,482.23,43.9,590,62.7,671.33,142.56,747.78,206.11c103.41,86,209.66,80.63,340.49,40.56,304.1-93.13,556.28-200.08,736-78.6s-77.09,487.57,24.28,605c18.3,21.2,43.31,38.83,71.73,53.5V0C1920.27.14,1781.8.07,1776.15.06Z" transform="translate(0 0)"/><path class="cls-8" d="M1920.27,1056.23V1080H0V0H42.23C41.72,39.41,23.28,76.55,26,116.83,33.75,230.75,118.66,326.71,141.18,438c25,123.35-4.92,242.09-50.82,358.24C55.25,885.09,108.76,984,216.64,1004.91c99.12,19.19,194.09-27.21,290.26-39.24,88.21-11,186.36,3.93,268,34.16,195.51,72.37,406.35,35.89,609.09,15.34C1574.66,995.84,1739,1017.83,1920.27,1056.23Z" transform="translate(0 0)"/><path class="cls-9" d="M1864.2,36.45c11.88,103.7,25.57,207.46,35.85,311.25,1.88,18.91,19,50.08-1.89,65.64-38.58,28.72-78.75-25.08-84.06-51.28-11.29-55.65,26-148.17-41.53-186.31-40-22.58-86.74-24.7-131.12-14-65.61,15.8-118.15,78.59-185.88,90-65.24,11-78.92-21.2-64.52-39.15,13.06-16.27,79.86-33.76,92.89-50,5.61-7,10.48-17.72,7.67-26.65-10.58-33.6-60.24-34.17-68.24-72.4a59.71,59.71,0,0,1,.53-27.14Z" transform="translate(0 0)"/><path class="cls-10" d="M1920.27,0s0,414,0,414c-74.2,47.57-73.35-36.78-65.45-79.68,11-59.52,19-130.26-49.42-167.26-50.14-27.12-108.74-29.66-164.39-16.82-56.16,13-93,42.76-139.53,70.7-22.46,13.48-53.34,27.21-81,29.05-28.72,1.91-51.25-23.38-33.2-44.94,16.37-19.54,40-34.26,56.3-53.74,7-8.39,13.14-21.28,9.62-32-13.26-40.35-75.52-40.91-85.55-86.82A68.12,68.12,0,0,1,1368.29,0Z" transform="translate(0 0)"/><path class="cls-11" d="M552.26,1080H0V665.93c79.88-50.8,79.42,40.22,72.69,58-5.49,14.47-32.28,90.9-.64,147.44,9,16.09,22.73,30.56,43,41.54,50.15,27.11,108.78,29.66,164.43,16.82,56.16-13,93-42.77,139.54-70.71,22.47-13.49,53.34-27.22,81-29.05,28.72-1.91,51.26,23.38,33.2,44.93-2.16,2.58-4.44,5.07-6.82,7.49-15.64,16-35.29,29.33-49.47,46.24-7,8.39-13.14,21.28-9.62,32,13.26,40.35,75.51,41,85.54,86.87A68.3,68.3,0,0,1,552.26,1080Z" transform="translate(0 0)"/><path class="cls-12" d="M533.3,874.87c-.15.18-.3.34-.47.51-2.24,2.27-6,3.69-8.21,5.95q-8,6.17-15.94,12c-20.24,14.94-39.83,28.2-59,39.75h0c-36,21.77-70.4,37.52-104.36,47.08-38.14,10.73-75.74,13.64-114.52,8.46a325.1,325.1,0,0,1-56.59-13c-35-12.55-66.47-31.89-86.24-60.67a153.1,153.1,0,0,1-18.71-37.71,34.59,34.59,0,0,1,.11-5.36l.48-.09,2.2-.45c9,16.09,22.73,30.56,43,41.54,50.15,27.11,108.78,29.66,164.43,16.82,56.16-13,93-42.77,139.54-70.71,22.47-13.49,53.34-27.22,81-29.05C528.81,828,551.35,853.31,533.3,874.87Z" transform="translate(0 0)"/><path class="cls-13" d="M1817.64,63.69c5.33,1.38,21.11,11.3,14.71.21-5.54-9.86-19.86-12.47-28.22-11.06,0,0-3.73.51,2.26,4.57A69.81,69.81,0,0,0,1817.64,63.69Z" transform="translate(0 0)"/><path class="cls-13" d="M1573.46,33.33c6.17-1.06,16.07-3.26,14.44-6.05-3.25-9.21-18.2-1.9-25.87,3,0,.75-3.46,2.91,1.74,3.91A34.29,34.29,0,0,0,1573.46,33.33Z" transform="translate(0 0)"/><path class="cls-13" d="M1640.8,91.25c5.68-.86,16.25-2.29,13.81-5.86-3.25-7.14-22.77-5-25.21,4.29,0,0,1.63.71,2.07,1A29.42,29.42,0,0,0,1640.8,91.25Z" transform="translate(0 0)"/><path class="cls-13" d="M1850.58,64.85c4.86,2.68,10.56,10.54,13,8.4,8.13-10.72-11.38-22.15-23.58-25.72a6.53,6.53,0,0,0-3.25,1.43c-.81,2.86,0,5.72,3.11,6.87A116.54,116.54,0,0,0,1850.58,64.85Z" transform="translate(0 0)"/><path class="cls-13" d="M1897.16,135.83c1.71,2.71,4.87,5,5.58,4.85,2.41-2.27-3.93-11.22-9.32-13.64-2-1.4-.24,1.7,0,3.19A33.56,33.56,0,0,0,1897.16,135.83Z" transform="translate(0 0)"/><path class="cls-13" d="M1460.74,145.76c7.64-5.07,17.56-12.18,22.18-23.12-8.56,2.37-17,13.17-23.91,21.9C1458.4,146,1458.94,146.49,1460.74,145.76Z" transform="translate(0 0)"/><path class="cls-13" d="M1763,94.58c5.65,2.74,17.62,6.67,16.77,1.6,0-4.23-12-6.05-18.34-4.41C1760.92,92.47,1761.41,93.47,1763,94.58Z" transform="translate(0 0)"/><path class="cls-13" d="M1571.91,95.78c4.65-.38,11.16-1.81,9.53-5.38-3.25-5-17.06-1.16-17.88,6.09a6.69,6.69,0,0,1,1.68.05A24.66,24.66,0,0,0,1571.91,95.78Z" transform="translate(0 0)"/><path class="cls-13" d="M1736.1,17.42c.63-.62.63-.62,1.44-1.33-4.88-4.29-14.64-5.72-19.51-.71a27.58,27.58,0,0,0,12.25,3A16.67,16.67,0,0,0,1736.1,17.42Z" transform="translate(0 0)"/><path class="cls-13" d="M1522.29,54.08c.6-.84,2.23-3,.6-3-8.94-.71-22,8.57-17.89,14.29,1.63,3.57,6.5-3.57,10.81-5.36A40.47,40.47,0,0,0,1522.29,54.08Z" transform="translate(0 0)"/><path class="cls-13" d="M1673.83,25.26c6.8.12,17.37.84,17.37-3.45,0-10.72-21.14-7.14-30.9-3.57-.81.71-2.44,2.14-1.63,3.57a10.35,10.35,0,0,0,3.22,1.65A50.39,50.39,0,0,0,1673.83,25.26Z" transform="translate(0 0)"/><path class="cls-13" d="M1704.46,81.18c7.88,3.5,28.41,6.36,26.72-2.93-1.68-7.86-17.21-6.43-26.15-5-2.44,0-6.5,0-6.33,3.33C1699,78,1701,79.65,1704.46,81.18Z" transform="translate(0 0)"/><path class="cls-13" d="M1511.06,85.84c9.4-6.87,37-16.16,25.66-24C1526.15,54,1512.33,75.39,1504.43,86,1504.74,87.52,1507,87.55,1511.06,85.84Z" transform="translate(0 0)"/><path class="cls-13" d="M1569.82,71.65c6.74-2,22.19-4.12,18.13-9.83-3.25-5-10.77-5-18-2.38s-14.09,8.13-16.12,13.74c0,.73,2.43.57,3.39.45A71.6,71.6,0,0,0,1569.82,71.65Z" transform="translate(0 0)"/><path class="cls-13" d="M1753.92,35.53c7.34,1,18.94,3.48,18.73-1-1.43-12-22.76-10.53-32.65-7.71-3.27,1.42-1.62,5,1.56,5.41A56,56,0,0,0,1753.92,35.53Z" transform="translate(0 0)"/><path class="cls-13" d="M1513.27,119c8-7.14,20.2-12.85,22.64-23.57-19.51,4.29-32.52,20.72-42.28,35.73,1.63.71,3.25,0,4.51-1.41A152.78,152.78,0,0,0,1513.27,119Z" transform="translate(0 0)"/><path class="cls-13" d="M1878.61,125.21c-.4-16.24-17.48-27-32.11-34.1,4.06,12.15,15.45,21.44,25,30.09C1874.49,123.63,1877.12,125.18,1878.61,125.21Z" transform="translate(0 0)"/><path class="cls-13" d="M1799,94c8.65,3,23.09,13.67,25.78,7.44,3.07-5.54-1.8-12.37-9.71-17.85s-18.78-9.52-27.69-9.47c-4.43.41-9.78-.69-12.34,2.79-1.71,2.8,2.77,5.29,5.05,6.95A129,129,0,0,0,1799,94Z" transform="translate(0 0)"/><path class="cls-13" d="M1656.37,62.66c-15.58-6.56-34.28-1.56-45.67,8.45-.81,1.43.81,3.57,2.44,4.29,15.45,2.86,33.34,2.14,45.66-6.6C1660.15,66.81,1659.45,64.58,1656.37,62.66Z" transform="translate(0 0)"/><path class="cls-13" d="M1631.9,45.19c8.08-.52,18.65.91,24.34-6.23a5.11,5.11,0,0,0-1.63-5.72c-13-5.72-28.46-4.29-40.65,2.86a4.79,4.79,0,0,0-2.44,3.57c-.81,1.43,0,3.57,4.1,3.55C1619.28,44.4,1625,45.16,1631.9,45.19Z" transform="translate(0 0)"/><path class="cls-13" d="M1724.46,62c10.8,1.29,31.39,4.76,32.14-2.42.67-9.38-8.51-15-19.78-17.26-11.06-2.25-24.48-1.54-33.42,1-3.25,1.43-6.5,3.57-5.69,6.43.81,5.72,8.94,7.86,14.8,9.62A119.78,119.78,0,0,0,1724.46,62Z" transform="translate(0 0)"/><path class="cls-13" d="M1888.23,561.3c.87-4.73,9.92-19.45-1.58-12.61-10.24,6-11.37,18.52-8.78,25.5,0,0,1,3.12,4.78-2.49A55.82,55.82,0,0,0,1888.23,561.3Z" transform="translate(0 0)"/><path class="cls-13" d="M1884.66,773.93c-1.94-5.15-5.59-13.35-8.48-11.61-9.8,3.91.13,15.81,6.5,21.76.83-.08,3.65,2.6,4.12-2A23.45,23.45,0,0,0,1884.66,773.93Z" transform="translate(0 0)"/><path class="cls-13" d="M1885.47,533c2.38-4.49,10.38-10.33,7.71-12.15-12.87-5.64-23.14,12.46-25.59,23.34a5.33,5.33,0,0,0,2,2.61c3.27.34,6.33-.7,7.22-3.51A106.87,106.87,0,0,0,1885.47,533Z" transform="translate(0 0)"/><path class="cls-13" d="M1847,636.75c-.76-.46-.76-.46-1.65-1.07-4.15,4.7-4.53,13.22,1.61,16.78a19.16,19.16,0,0,0,1.83-10.85A11.79,11.79,0,0,0,1847,636.75Z" transform="translate(0 0)"/><path class="cls-13" d="M1863.36,689.06c-.7-5.84-1.21-15-6-14.44-11.87,1.32-5.31,19-.15,26.87.89.61,2.68,1.82,4.16,1a8.08,8.08,0,0,0,1.43-3A34.07,34.07,0,0,0,1863.36,689.06Z" transform="translate(0 0)"/><path class="cls-13" d="M1921,635.26a5.33,5.33,0,0,0-6-1.79c-8.5,2.41-5,15.52-2.32,23,.3,2.09.8,5.57,4.47,5,1.32-.42,2.68-1.87,3.84-4.28Z" transform="translate(0 0)"/><path class="cls-13" d="M1921,801.5l-.26.36c-2,2.69-1.61,5.32.26,7.83Z" transform="translate(0 0)"/><path class="cls-13" d="M1921,760c-1.93-2.49-4.11-3.77-6.57-2-5.14,3.4-4.21,9.83-.43,15.68a30.19,30.19,0,0,0,7,7.39Z" transform="translate(0 0)"/><path class="cls-13" d="M1864.88,619.27c.26-6.41,1.52-16.63-3.42-15.9-13.08,2.7-8.87,20.76-4.53,28.88,2,2.62,5.74.77,5.8-2A39,39,0,0,0,1864.88,619.27Z" transform="translate(0 0)"/><path class="cls-13" d="M1921,551.44c-3.79,1.79-7.4,5.29-10.38,9.64-5.1,7.44-8.24,17.24-7.09,24.85,1,3.74.44,8.45,4.61,10.21,3.31,1.11,5.52-3,7.07-5.18a80.07,80.07,0,0,0,5.79-10.38Z" transform="translate(0 0)"/><path class="cls-13" d="M1921,705.69a33.88,33.88,0,0,0-7.56-9.13c-2.36-.91-4.75,0-6.49,2.84-5.21,13.79,2.12,28.75,14.06,37.38Z" transform="translate(0 0)"/><path class="cls-13" d="M1890.6,722.48c-1.57-6.85-1.29-16.07-9.9-20.06a6.65,6.65,0,0,0-6.13,2.09c-4.73,11.83-1.25,24.87,8.17,34.43,1,1.3,3.47,1.73,4.26,1.65,1.68.52,4-.44,3.43-3.94C1891.29,733.37,1891.42,728.34,1890.6,722.48Z" transform="translate(0 0)"/><path class="cls-13" d="M1897.79,641.23c.1-9.4,1.41-27.44-6.63-27.2-10.48.58-15.53,9.12-16.69,19a53.09,53.09,0,0,0,5.18,28.48c2,2.61,4.76,5.12,7.82,4.08,6.23-1.4,7.61-8.62,8.83-13.84A82,82,0,0,0,1897.79,641.23Z" transform="translate(0 0)"/><path class="cls-13" d="M103,1005.3c-4.8-1.86-18.24-12.82-13.75-1.75,3.85,9.82,16.9,13.78,24.93,13.35,0,0,3.56-.08-1.49-4.52A63,63,0,0,0,103,1005.3Z" transform="translate(0 0)"/><path class="cls-13" d="M327.66,1059.54c-5.93.35-15.5,1.36-14.36,4.15,1.79,9,16.79,3.71,24.65-.08.12-.7,3.64-2.36-1.1-3.85A32.45,32.45,0,0,0,327.66,1059.54Z" transform="translate(0 0)"/><path class="cls-13" d="M272.47,998.15c-5.44.2-15.54.43-13.74,4,2.07,7,20.65,7.09,24.2-1.35,0,0-1.43-.84-1.81-1.14A27.45,27.45,0,0,0,272.47,998.15Z" transform="translate(0 0)"/><path class="cls-13" d="M72.3,1000.74c-4.19-3-8.45-11-11-9.24-9.08,9.18,7.64,22,18.58,26.59a6.37,6.37,0,0,0,3.24-1c1.15-2.59.78-5.36-2-6.76A104.57,104.57,0,0,0,72.3,1000.74Z" transform="translate(0 0)"/><path class="cls-13" d="M38.36,929.31c-1.23-2.72-3.88-5.17-4.57-5.13-2.56,1.88,2.15,10.93,6.87,13.77,1.68,1.52.46-1.57.42-3A30.38,30.38,0,0,0,38.36,929.31Z" transform="translate(0 0)"/><path class="cls-13" d="M448.65,966.09c-7.85,3.95-18.12,9.56-23.94,19.32,8.35-1.32,17.72-10.55,25.4-18C450.88,966.14,450.44,965.6,448.65,966.09Z" transform="translate(0 0)"/><path class="cls-13" d="M158.45,982.13c-4.92-3.16-15.6-8.11-15.5-3.27-.62,4,10.4,6.94,16.58,6.07C160.09,984.32,159.77,983.33,158.45,982.13Z" transform="translate(0 0)"/><path class="cls-13" d="M337.65,1001.19c-4.41-.14-10.7.52-9.67,4,2.36,5,15.83,2.89,17.59-3.82a6.21,6.21,0,0,1-1.56-.23A23.4,23.4,0,0,0,337.65,1001.19Z" transform="translate(0 0)"/><path class="cls-13" d="M173.08,1057.27c-.67.51-.67.51-1.53,1.09,4,4.53,12.93,6.9,18.19,2.73a25.36,25.36,0,0,0-11.07-4.11A15.92,15.92,0,0,0,173.08,1057.27Z" transform="translate(0 0)"/><path class="cls-13" d="M378.44,1045.5c-.68.72-2.5,2.56-1,2.73,8.28,1.61,21.74-5.72,18.72-11.5-1-3.52-6.58,2.66-10.86,3.88A40.14,40.14,0,0,0,378.44,1045.5Z" transform="translate(0 0)"/><path class="cls-13" d="M232.5,1056.5c-6.36-.83-16.17-2.62-16.75,1.4-1.47,10,18.83,8.93,28.46,6.61.86-.58,2.58-1.75,2-3.18a9.37,9.37,0,0,0-2.79-1.89A46.68,46.68,0,0,0,232.5,1056.5Z" transform="translate(0 0)"/><path class="cls-13" d="M211.45,1000.86c-6.91-4.11-25.75-9-25.44-.08.5,7.54,15.25,7.84,23.82,7.45,2.28.26,6.09.69,6.39-2.45C216.08,1004.41,214.47,1002.66,211.45,1000.86Z" transform="translate(0 0)"/><path class="cls-13" d="M393.31,1016.93c-9.75,5.45-36.92,11.23-27.33,19.8,8.83,8.48,24.71-10.14,33.56-19.26C399.46,1016,397.35,1015.75,393.31,1016.93Z" transform="translate(0 0)"/><path class="cls-13" d="M336.31,1024c-6.59,1.14-21.36,1.52-18.33,7.3,2.36,5,9.41,5.82,16.52,4.13s14.32-6.13,17-11.17c.1-.69-2.2-.79-3.12-.78A68.36,68.36,0,0,0,336.31,1024Z" transform="translate(0 0)"/><path class="cls-13" d="M158.86,1038.42c-6.73-1.76-17.27-5.26-17.69-1-.3,11.37,19.88,12.27,29.53,10.68,3.26-1,2.2-4.51-.72-5.23A51.33,51.33,0,0,0,158.86,1038.42Z" transform="translate(0 0)"/><path class="cls-13" d="M395.77,985.65c-8.48,5.84-20.69,9.91-24.44,19.69,18.87-2,33.31-16,44.5-29-1.43-.84-3-.34-4.42.85A150.78,150.78,0,0,0,395.77,985.65Z" transform="translate(0 0)"/><path class="cls-13" d="M54.29,941.21c-1.84,15.26,12.69,27.1,25.43,35.35-2.15-11.81-11.54-21.72-19.29-30.83C57.93,943.13,55.68,941.4,54.29,941.21Z" transform="translate(0 0)"/><path class="cls-13" d="M124.66,978.86c-7.7-3.73-19.76-15.24-23.14-9.7-3.63,4.86,0,11.78,6.65,17.75s16.3,10.91,24.65,11.8c4.21.08,9.07,1.68,11.94-1.31,2-2.44-1.88-5.25-3.78-7A116.6,116.6,0,0,0,124.66,978.86Z" transform="translate(0 0)"/><path class="cls-13" d="M254,1023.3c13.7,7.79,31.91,5.08,43.94-3.09,1-1.25-.27-3.43-1.7-4.27-14.08-4.31-30.94-5.53-43.69,1.36C251,1019,251.35,1021.18,254,1023.3Z" transform="translate(0 0)"/><path class="cls-13" d="M274.52,1042.26c-7.64-.37-17.35-2.82-23.66,3.27a4.74,4.74,0,0,0,.74,5.53c11.41,6.73,26.08,7,38.48,1.62a4.73,4.73,0,0,0,2.77-3.09c1-1.25.49-3.35-3.36-3.76C286.24,1044.32,280.93,1043,274.52,1042.26Z" transform="translate(0 0)"/><path class="cls-13" d="M190.08,1016.77c-9.94-2.35-28.76-7.78-30.45-1.13-1.91,8.72,5.93,14.93,16.18,18.26a73.68,73.68,0,0,0,31.45,2.63c3.24-1,6.58-2.66,6.21-5.42,0-5.44-7.31-8.31-12.55-10.57A110.06,110.06,0,0,0,190.08,1016.77Z" transform="translate(0 0)"/><path class="cls-13" d="M1820.71,971.83c7.5,1.67,28.77,11.8,19.65.26-8.27-10.45-27.93-14-39.85-13.42,0,0-5.52,0,3.59,5.33A113.57,113.57,0,0,0,1820.71,971.83Z" transform="translate(0 0)"/><path class="cls-13" d="M1462.52,888.82c11.67.15,30.93-.17,29.42-3.55,0-5.37-7.63-6.85-17.35-6.54s-22,2.45-30.41,4.31c-.53.82-8,2.43.58,4.64A100.94,100.94,0,0,0,1462.52,888.82Z" transform="translate(0 0)"/><path class="cls-13" d="M1571.23,964c7.86.15,22,.63,19.43-3.66-3.27-8.26-31.54-9.59-35.59-.17,0,0,2.35,1.07,3,1.43A58.06,58.06,0,0,0,1571.23,964Z" transform="translate(0 0)"/><path class="cls-13" d="M1862.1,971.83c5.86,1.91,10.39,7.49,16.73,7.49,0-14.33-20.84-26.27-35.33-23.09-.91.8,1.81,4.78,5,7A140.83,140.83,0,0,0,1862.1,971.83Z" transform="translate(0 0)"/><path class="cls-13" d="M1267,954.81c11.11-.74,26.09-2.13,27.56-8.46-14.85-1.58-24.13,3.12-31.38,6.85C1263,954,1264.23,954.63,1267,954.81Z" transform="translate(0 0)"/><path class="cls-13" d="M1727.48,994.91c7.59,4.3,25,11.29,25.91,5.81,1.81-4.42-16.88-9.36-27.24-9.19C1725.17,992.15,1725.54,993.34,1727.48,994.91Z" transform="translate(0 0)"/><path class="cls-13" d="M1463.87,955.09c7.58.64,17.8.51,13.9-3.6-7.22-6-29.95-5.12-27.85,2.24a22.89,22.89,0,0,1,2.94.5A62.09,62.09,0,0,0,1463.87,955.09Z" transform="translate(0 0)"/><path class="cls-13" d="M1706.82,903.64c.88-.53.88-.53,2-1.12-5.21-5.87-16.5-9.65-23.33-5.26a35.86,35.86,0,0,0,14,6.06A23.1,23.1,0,0,0,1706.82,903.64Z" transform="translate(0 0)"/><path class="cls-13" d="M1359.39,899.55c1.21-1.14,4.82-1.34,3.86-2.08-12.27-6.5-29.05,0-39.44,7,5,6.1,14.47-.81,21.49-.56A97.86,97.86,0,0,0,1359.39,899.55Z" transform="translate(0 0)"/><path class="cls-13" d="M1630.24,899c8.44,1.43,21,4.31,22.24-.37,3.1-11.7-23.65-11.91-37.56-9.82-1.34.63-4,1.9-3.41,3.61a12.93,12.93,0,0,0,3.79,2.39A76.81,76.81,0,0,0,1630.24,899Z" transform="translate(0 0)"/><path class="cls-13" d="M1653,965.92c8.72,5.54,34.36,13.69,34.86,3.19-.12-9-20.56-11.24-32.05-11.68-3-.52-7.95-1.39-8.61,2.26C1647.27,961.31,1649.22,963.51,1653,965.92Z" transform="translate(0 0)"/><path class="cls-13" d="M1333.22,926.75c18.25-3.89,42.22,1.16,54.86-12.32,2.6-1.74-.4-5.56-3.12-5.41-23.06-5.09-45.94,5-64.41,15.73C1321.33,926.17,1325.62,926.94,1333.22,926.75Z" transform="translate(0 0)"/><path class="cls-13" d="M1451.29,929.18c11.3-1.36,24.25,1.91,33.73-5-17.25-12.6-49.19-14.81-61.49,3.43-1.64,2.49,2.66-.95,4.18.65A208.24,208.24,0,0,0,1451.29,929.18Z" transform="translate(0 0)"/><path class="cls-13" d="M1727.33,928.25c9.9,3,26.21,8.43,26,3.37-.9-6.88-8.74-11.33-17.69-13.85a85.16,85.16,0,0,0-25.42-2.79c-4.4.76-2.86,5.12,1.2,6.38A88.65,88.65,0,0,0,1727.33,928.25Z" transform="translate(0 0)"/><path class="cls-13" d="M1362.69,954.68c8.94-4.23,30.81-3.06,27.81-6.88-12.9-15.23-48.55-6.06-62.83,9.89,2.71-.15,6.33-.35,8.87-.52C1343,957,1352.33,956.12,1362.69,954.68Z" transform="translate(0 0)"/><path class="cls-13" d="M1889.89,1031.26c3.43-16.11-14.69-28.85-31-32,3.63,11.94,15.4,19.9,24.47,28.91C1885.9,1030.27,1888.25,1031.51,1889.89,1031.26Z" transform="translate(0 0)"/><path class="cls-13" d="M1786.79,1002.23c13.21,3.37,41.3,18.49,40.39,7.35,0-23.09-46.21-39-75.2-27.07a26.52,26.52,0,0,1,6.5,5.32C1764.54,991.89,1774.57,997.07,1786.79,1002.23Z" transform="translate(0 0)"/><path class="cls-13" d="M1597.12,936.31c-22-9.19-50.09-8.42-72.12.79,15.44,12.7,43.47,11.14,64.21,9.18,3.62-.2,6.21-1.94,10-2.92C1601.4,941.48,1600.92,938.95,1597.12,936.31Z" transform="translate(0 0)"/><path class="cls-13" d="M1564.36,913c11.59.47,24.53,3.73,36-.9,3.56-1,5-5.87,2.14-8.1-21.72-11.55-47-10.14-69.18-2.52-1.81.1-4.41,1.84-3.33,4.18a13,13,0,0,0,7.08,2.25C1543.25,909.91,1553,911.78,1564.36,913Z" transform="translate(0 0)"/><path class="cls-13" d="M1683.25,949.66c14.38,3.38,34.36,14.56,40.78,5.82,6-9.53-1.44-16.74-12.81-21.83s-26.73-8.07-37.15-9.27c-5.44,0-10.87-.8-16.31.8-1.81.8-3.62,1.59-4.53,3.19-1.81,8.76,9.06,11.94,15.44,15.55C1672.86,945.8,1677.77,947.76,1683.25,949.66Z" transform="translate(0 0)"/><path class="cls-13" d="M159.27,568.65c1.39,4.43.1,18,7.65,11.94,6.85-5.14,2.45-17.1-2.85-23.91,0,0-2.17-3.05-3.79,2.26A29.31,29.31,0,0,0,159.27,568.65Z" transform="translate(0 0)"/><path class="cls-13" d="M142.27,328.57c2.2,6.06,6.3,15.69,9.29,13.59,10.2-4.77-.62-18.67-7.52-25.62-.88.11-3.92-3-4.27,2.39A30.67,30.67,0,0,0,142.27,328.57Z" transform="translate(0 0)"/><path class="cls-13" d="M85.39,405.9c1.88,5.59,5.2,16,9,13,7.8-4.44,2.27-23.78-8.92-24.74,0,0-.58,1.76-.81,2.25A26.16,26.16,0,0,0,85.39,405.9Z" transform="translate(0 0)"/><path class="cls-13" d="M175.95,595.63c0,4.65-3.88,12.73.4,13,10.61,2.72,13.19-13.57,10.13-22.36-1.09-1.53-2.17-3.05-3.83-2.82s-3.32.46-3.87,2.88A43.9,43.9,0,0,0,175.95,595.63Z" transform="translate(0 0)"/><path class="cls-13" d="M132.81,648.25c-1.88,3.44-2.1,7.74-1.37,8.2,4.81,0,10.23-11.74,8.32-17.43-.19-2.39-2.11,1-3.57,2.27A36.57,36.57,0,0,0,132.81,648.25Z" transform="translate(0 0)"/><path class="cls-13" d="M48.82,236c1.26,6.31,3.36,14.4,11.35,16.64,1.35-7.73-4.65-13.6-9.5-18.51C49.64,233.84,48.94,234.45,48.82,236Z" transform="translate(0 0)"/><path class="cls-13" d="M101.82,527.43c-1.71,5.47-2.56,16.49,3.13,14.86,5-.7,3.34-11.36-.25-16.73C103.76,525.23,102.72,525.84,101.82,527.43Z" transform="translate(0 0)"/><path class="cls-13" d="M69.44,337.1c1.11,4.64,3.79,11,7.69,8.75,5.31-4.09-1-17.46-9.44-17.12a6.23,6.23,0,0,1,.1,1.71A20.55,20.55,0,0,0,69.44,337.1Z" transform="translate(0 0)"/><path class="cls-13" d="M186.16,490.1c.82.54.82.54,1.77,1.24,4.22-5.62,4.37-15.69-2.21-19.81a25,25,0,0,0-1.59,12.85A15.19,15.19,0,0,0,186.16,490.1Z" transform="translate(0 0)"/><path class="cls-13" d="M113.91,279.55a3.15,3.15,0,0,0,2.42,1.34c5.18-4.91-3.69-12.9-6.11-17.59-1.09-1.52-3.83-2.82-4.54-1.88-5.69,1.63,1.27,8.2,2.67,12.29A26.67,26.67,0,0,0,113.91,279.55Z" transform="translate(0 0)"/><path class="cls-13" d="M167.33,428.53c.92,6.89,1.74,17.67,6.73,17,12.47-1.74,5-22.49-.66-31.75-1-.71-2.88-2.11-4.41-1.06a10,10,0,0,0-1.42,3.52A45,45,0,0,0,167.33,428.53Z" transform="translate(0 0)"/><path class="cls-13" d="M107,468.5c-2.84,8.52-3,29.49,7.56,26.34,8.89-2.91,4.82-18.27,1.76-27.06-.38-2.46-1-6.56-4.87-5.85C109.89,462.52,108.28,464.77,107,468.5Z" transform="translate(0 0)"/><path class="cls-13" d="M84.44,273.11c2.8,11.84,13.57,32.13,22,25.93,7.55-6.08-7.51-26.61-20.52-32.58C84.42,267,83.82,269.32,84.44,273.11Z" transform="translate(0 0)"/><path class="cls-13" d="M97.15,331.09c3.33,6.49,8.23,21.73,14.25,16.7,10.62-8.18-4.69-30.36-17.8-32.72-.83.12-.45,2.58-.24,3.54C93.7,321.53,95.07,325.95,97.15,331.09Z" transform="translate(0 0)"/><path class="cls-13" d="M168,510.49c.23,7.06.22,18,5.21,17.26,13.17-2.67,7.51-22.83,2.66-32.22-2.17-3.05-6.07-.83-6,2.41A45.57,45.57,0,0,0,168,510.49Z" transform="translate(0 0)"/><path class="cls-13" d="M51.39,281.53c3.7,6.38,8.38,16.64,15,18.35,7.52,1.61,3.05-9.61-.17-15.36-6.39-11.59-16.42-22-19.11-19.36-.54.64-.65,1.75-.22,3.62A51.16,51.16,0,0,0,51.39,281.53Z" transform="translate(0 0)"/><path class="cls-13" d="M128,628.83c13.59-3.65,23.65-21,20-33.87-11.26,4.08-15.3,16.38-19.34,26.53C127.41,624.78,127.06,627.52,128,628.83Z" transform="translate(0 0)"/><path class="cls-13" d="M116,557.69c.2,8.12-2,19.14,6.62,23.66a8.79,8.79,0,0,0,8.31-2.74,31.42,31.42,0,0,0,5.88-21.28,37.27,37.27,0,0,0-8.93-20.76c-4-3.64-7.48,1-8.39,3.92C117.68,544.49,116.35,550.61,116,557.69Z" transform="translate(0 0)"/><path class="cls-13" d="M121.09,417c5.2-16.78-3.54-34.84-17-44.71-1.79-.59-4,1.4-4.61,3.16-.91,16.05,2.71,34,14.8,45C116.85,421.46,119.33,420.39,121.09,417Z" transform="translate(0 0)"/><path class="cls-13" d="M137.6,389.45c1.86,8.07,1.85,19,11,23.55a6.51,6.51,0,0,0,6.4-2.57c4.62-14.05.55-29.41-9.67-40.56-1.08-1.52-3.71-2-4.54-1.88-1.79-.59-4.16.58-3.49,4.71C136.54,376.59,136.56,382.54,137.6,389.45Z" transform="translate(0 0)"/><path class="cls-13" d="M132.53,485.55c.16,11-.12,31.12,8.32,30.78,21.87-1.37,18.78-37.81,10.17-55.05-2.17-3.05-5.17-6-8.37-4.7-6.52,1.75-7.75,10.3-8.88,16.49A107.52,107.52,0,0,0,132.53,485.55Z" transform="translate(0 0)"/></svg>